<?xml version="1.0" encoding="utf-8"?>
<!-- Generator: Adobe Illustrator 24.1.0, SVG Export Plug-In . SVG Version: 6.00 Build 0)  -->
<svg version="1.1" id="Layer_1" xmlns="http://www.w3.org/2000/svg" xmlns:xlink="http://www.w3.org/1999/xlink" x="0px" y="0px"
	 viewBox="0 0 1024 1024" style="enable-background:new 0 0 1024 1024;" xml:space="preserve">
<path d="M483.5,522.9c0-0.1,0-0.3,0-0.5c0-7.7,0-15.4,0-23.1c0-0.1,0-0.2,0-0.2c0-0.3,0.1-0.6,0.4-0.6c0.4,0,0.4,0.3,0.4,0.6
	c0,4.9,0,9.8,0,14.6c0,3.7,0,7.4,0,11c0,2.2-1,3.6-2.8,4.6c-1.2,0.7-2.5,0.9-3.9,0.5c-2.1-0.6-3.1-2.5-2.3-4.5
	c0.9-2.5,4.1-4.1,6.6-3.2C482.5,522.2,483,522.6,483.5,522.9z"/>
</svg>
