<?xml version="1.0" encoding="utf-8"?>
<!-- Generator: Adobe Illustrator 24.1.0, SVG Export Plug-In . SVG Version: 6.00 Build 0)  -->
<svg version="1.1" id="Layer_1" xmlns="http://www.w3.org/2000/svg" xmlns:xlink="http://www.w3.org/1999/xlink" x="0px" y="0px"
	 viewBox="0 0 300 300" style="enable-background:new 0 0 300 300;" xml:space="preserve">
<style type="text/css">
	.st0{fill:none;}
	.st1{fill-rule:evenodd;clip-rule:evenodd;}
</style>
<g>
	<g>
		<g>
			<path class="st0" d="M231.6,58.6c0,10.3,7.6,18.1,17.8,18.2c10.2,0.2,18.5-8.1,18.4-18.1c-0.1-10.5-7.8-18.1-18.3-18
				C239.2,40.7,231.6,48.2,231.6,58.6z M249.6,156.4c10.3,0,18.1-7.7,18.1-17.9c0-10-8.5-18.4-18.4-18.3c-10.1,0.1-17.8,8-17.7,18.3
				C231.7,148.9,239.3,156.4,249.6,156.4z"/>
			<path class="st1" d="M31,285c1.4-2.5,3.8-3.5,6.2-4.6c14.4-6.6,29.2-12.2,43-20.2c24.2-13.9,45.5-31.1,61.8-54.1
				c14.5-20.4,23.1-42.9,25-68c1.8-22.9,0.6-45.5-5.3-67.8c-2.5-9.6-6.6-18.5-13-26.2c-10.6-13-24.6-17.4-40.7-15.8
				c-13.3,1.3-25.3,6.2-35.5,15.1c-6.9,6-11.2,13.4-12.4,22.5c-0.2,1.2-0.8,2.9,0.5,3.7c1.1,0.7,2.1-0.9,3-1.5
				c8.4-5.7,17.2-9.7,27.7-7.1c12.2,3,20.3,10.3,23.4,22.8c1.9,7.7,2,15.4,0.1,23.1c-5.2,21-24.3,26.6-39.2,24.7
				c-17.7-2.3-26.6-13.9-30.8-30c-8.3-31.3,7-63,37.4-78c8.3-4.1,17.1-6,26.1-7.8c7.8-1.1,15.7-1.1,23.8,0c9.1,1.1,17.2,3,25.5,6.1
				c19.2,7.4,32.4,21.2,41.5,39.4c6.4,12.8,9.3,26.5,10.1,40.5c1.2,19.9-0.4,39.5-7.2,58.5c-9,24.9-23.7,45.9-43.3,63.6
				C128,251.4,92.4,269.7,54,283.1c-4.4,1.5-8.9,2.9-13.2,4.6c-3.6,1.4-6.8,1.3-9.7-1.3C31,286,31,285.5,31,285z"/>
			<path class="st1" d="M231.6,58.6c0-10.3,7.5-17.9,17.9-17.9c10.5,0,18.2,7.6,18.3,18c0.1,10-8.2,18.3-18.4,18.1
				C239.2,76.6,231.6,68.9,231.6,58.6z"/>
			<path class="st1" d="M249.6,156.4c-10.4,0-18-7.5-18-17.8c0-10.3,7.6-18.2,17.7-18.3c9.9-0.1,18.4,8.3,18.4,18.3
				C267.7,148.7,259.9,156.4,249.6,156.4z"/>
		</g>
	</g>
</g>
</svg>
