<?xml version="1.0" encoding="utf-8"?>
<!-- Generator: Adobe Illustrator 24.1.0, SVG Export Plug-In . SVG Version: 6.00 Build 0)  -->
<svg version="1.1" id="Layer_1" xmlns="http://www.w3.org/2000/svg" xmlns:xlink="http://www.w3.org/1999/xlink" x="0px" y="0px"
	 viewBox="0 0 50 50" style="enable-background:new 0 0 50 50;" xml:space="preserve">
<path d="M29.1,34.3c0-0.1,0-0.3,0-0.5c0-8.3,0-16.6,0-24.9c0-0.1,0-0.2,0-0.3C29,8.3,29.1,8,29.5,8S30,8.3,30,8.6
	c0,5.3,0,10.5,0,15.8c0,4,0,7.9,0,11.9c0,2.3-1.1,3.9-3.1,5c-1.3,0.7-2.7,0.9-4.2,0.5c-2.2-0.6-3.3-2.7-2.5-4.9
	c1-2.7,4.4-4.4,7.1-3.5C27.9,33.6,28.5,34,29.1,34.3z"/>
</svg>
