<?xml version="1.0" encoding="utf-8"?>
<!-- Generator: Adobe Illustrator 24.1.0, SVG Export Plug-In . SVG Version: 6.00 Build 0)  -->
<svg version="1.1" id="Layer_1" xmlns="http://www.w3.org/2000/svg" xmlns:xlink="http://www.w3.org/1999/xlink" x="0px" y="0px"
	 viewBox="0 0 300 300" style="enable-background:new 0 0 300 300;" xml:space="preserve">
<style type="text/css">
	.st0{fill-rule:evenodd;clip-rule:evenodd;}
</style>
<g>
	<path class="st0" d="M191.4,130.6c0,35.8-0.3,71.7,0.2,107.5c0.2,14.2-5.2,25.3-15.5,34.3c-13.1,11.4-28.2,17-45.8,15.5
		c-12.3-1-20-8.9-21.4-21.2c-1.7-14.6,3.3-26.4,14-35.9c13.6-12,29.2-18.4,47.7-16.3c3.1,0.3,5.9,1.3,8.7,2.6c4.3,1.9,4.3,2,4.3-2.9
		c0-14.1,0-28.1,0-42.2c0-51.7,0-103.3,0-155c0-2.3-0.7-5.1,3.2-5.2c4-0.1,4.7,0.4,4.7,4.8C191.4,54.6,191.4,92.6,191.4,130.6z
		 M126.7,276.3c0.6-0.1,2.2-0.2,3.6-0.6c8.4-1.9,15.9-5.8,23-10.6c10.4-7.1,20.2-14.9,26.5-26.2c1.9-3.3,3.6-7.2,1-10.7
		c-2.7-3.5-6.9-3-10.6-1.9c-20,6.1-36.3,17.4-49,34.1c-1.6,2.1-2.6,4.6-3,7.3C117.3,274.1,119.3,276.4,126.7,276.3z"/>
</g>
</svg>
