<?xml version="1.0" encoding="utf-8"?>
<!-- Generator: Adobe Illustrator 24.1.0, SVG Export Plug-In . SVG Version: 6.00 Build 0)  -->
<svg version="1.1" id="Layer_1" xmlns="http://www.w3.org/2000/svg" xmlns:xlink="http://www.w3.org/1999/xlink" x="0px" y="0px"
	 viewBox="0 0 300 300" style="enable-background:new 0 0 300 300;" xml:space="preserve">
<style type="text/css">
	.st0{fill-rule:evenodd;clip-rule:evenodd;}
</style>
<g>
	<path class="st0" d="M150,117.7c0-33.7,0-67.3,0-101c0-3,0-5.5,4.2-5.3c2.8,0.1,3.9,1.1,4.2,3.9c1.3,12.5,3.2,24.8,9.7,35.9
		c5.1,8.8,12.2,15.9,18.9,23.3c6.6,7.3,13.5,14.2,19.5,21.9c12.9,16.4,20.8,34.5,19.2,55.8c-1.4,19.8-7.9,38.2-16.8,55.8
		c-1.5,3-3.2,5.9-4.8,8.8c-0.5,0.8-1,1.8-1.8,2.3c-1.2,0.8-2.7,0.9-3.9,0.1c-1.2-0.8-0.2-2,0.2-3c4.9-10.5,9.8-21.1,13.2-32.3
		c6.4-21.3,6.5-42.3-4.5-62.3c-9.8-17.7-24.5-29.6-44.4-34.4c-4.4-1.1-4.9-0.7-4.9,4c0,26.1,0,52.2,0,78.3c0,21.3,0,42.6,0,63.8
		c0,26.3-12.4,43.4-37.6,51.8c-9.9,3.3-20,4.8-30.1,0.8c-13.8-5.4-19.5-17.9-14.3-31.9c3.6-9.9,10.7-17.2,19-23.3
		c12.7-9.4,26.7-14.5,42.8-11.7c3.3,0.6,6.6,1.3,9.5,3c2.3,1.4,2.8,0.5,2.7-1.7c0-8.2,0-16.3,0-24.5C150,170,150,143.8,150,117.7z"
		/>
</g>
</svg>
