<?xml version="1.0" encoding="utf-8"?>
<!-- Generator: Adobe Illustrator 24.1.0, SVG Export Plug-In . SVG Version: 6.00 Build 0)  -->
<svg version="1.1" id="Layer_1" xmlns="http://www.w3.org/2000/svg" xmlns:xlink="http://www.w3.org/1999/xlink" x="0px" y="0px"
	 viewBox="0 0 300 300" style="enable-background:new 0 0 300 300;" xml:space="preserve">
<style type="text/css">
	.st0{fill-rule:evenodd;clip-rule:evenodd;}
</style>
<g>
	<path class="st0" d="M148.4,213.8c0-1.9,0-3.2,0-4.4c0-67.6,0-135.2,0-202.8c0-4.4,0.4-4.6,4.7-4.5c2.8,0.1,3,1.9,3.1,3.9
		c0.3,6.7,1.9,13,4.8,19.1c3.4,7.3,9.5,12.2,15.3,17.5c11.1,9.9,21.8,20.2,30.7,32.2c10.4,14.2,16.9,29.9,16.7,47.8
		c-0.1,7.8-1.2,15.5-3.2,23.1c-0.4,1.4-0.5,2.6,0.1,4c10.6,23.9,7.4,47.3-3.3,70.2c-0.9,2-2.1,3.9-3.2,5.9c-0.7,1.2-1.6,1.9-3.1,1.9
		c-2,0-2.8-0.6-1.7-2.7c5.7-10.6,9.4-22,10.6-34c1.9-20-2.9-37.4-19.9-50.1c-12.2-9.1-25.4-16.6-38.2-24.6c-1.7-1.1-3.6-3.6-5.3-2.7
		c-1.3,0.7-0.4,3.8-0.4,5.8c0,37-0.2,73.9,0,110.9c0.1,13.9-6.3,24.3-16.5,32.8c-11.1,9.3-23.8,14.5-38.4,14.8
		c-4.7,0.1-9.3-0.9-13.7-2.8c-12-5.2-17.3-16.8-13.5-29.3c2.7-8.8,8.2-15.7,15-21.5c11.5-9.8,24.4-16.4,40.1-15.9
		C135.6,208.6,142.1,209.5,148.4,213.8z M155.8,53.8c0.4,3.1,0.6,5.6,1.1,7.9c3.6,16.9,12.3,30.8,24.9,42.4
		c9.4,8.6,19,16.9,26.9,26.9c2.1,2.6,4.1,5.3,6.4,8.4c1-3.9,0.5-7.3,0.7-10.7c0.6-11.8-3-22.2-9.3-32
		C194.1,77.4,175.9,65.2,155.8,53.8z"/>
</g>
</svg>
