<?xml version="1.0" encoding="utf-8"?>
<!-- Generator: Adobe Illustrator 24.1.0, SVG Export Plug-In . SVG Version: 6.00 Build 0)  -->
<svg version="1.1" id="Layer_1" xmlns="http://www.w3.org/2000/svg" xmlns:xlink="http://www.w3.org/1999/xlink" x="0px" y="0px"
	 viewBox="0 0 300 300" style="enable-background:new 0 0 300 300;" xml:space="preserve">
<style type="text/css">
	.st0{fill-rule:evenodd;clip-rule:evenodd;}
</style>
<g>
	<path class="st0" d="M163.9,144.3c16.1-0.8,29.8,11.3,33.7,28.3c4.4,19.1-3.6,36-21.2,45.5c-2.1,1.1-2.9,2.2-2.3,4.7
		c2,8.9,3.6,18,5.4,26.9c1.2,5.8,1.4,11.7-0.2,17.4c-3.2,12.1-11.8,18-23.5,20.1c-11.7,2.2-23.9-3.1-29.8-12.9
		c-4.6-7.7-3.6-17.9,2.3-24.3c4.9-5.2,11.4-6.7,17.2-3.9c6.4,3.1,10.2,10.4,9.1,17.1c-1.2,7-6.9,12-14,12.5c-0.6,0-1.3-0.3-1.6,0.4
		c-0.2,0.6,0.3,1.1,0.6,1.6c1.5,1.9,3.7,2.8,5.9,3.5c14,3.9,27.8-5.9,28.8-20.3c0.3-4.3,0.1-8.6-0.8-12.8c-1.7-8-3.4-16-5.1-24
		c-0.3-1.4-0.7-2.1-2.4-1.7c-28.5,6.9-51.5-10.3-60.4-33.1c-8.5-21.8-4.3-41.7,8.9-60.3c7.8-11.1,17.3-20.5,26.7-30.2
		c1.4-1.4,1.7-2.6,1.2-4.6c-2.9-12.1-4.7-24.4-3.8-36.8c1-13.1,4.1-25.7,11.6-36.8c2.2-3.2,4.8-5.9,8.3-7.7c2.7-1.4,4-1.2,6,1
		c1.1,1.2,2,2.4,2.8,3.8C174.6,31,179.1,45,178.9,60c-0.3,20.3-8.1,37.8-21.1,53.1c-0.6,0.7-1.1,1.5-1.8,2c-2.9,2.1-2.9,4.7-2.1,7.9
		c1.5,6.3,2.7,12.6,3.9,19c0.3,1.8,0.9,2.7,2.9,2.3C161.7,144.2,162.8,144.3,163.9,144.3z M150.5,205.4
		C150.5,205.4,150.5,205.4,150.5,205.4c-14-5.2-22.4-21.7-18.3-36c2.9-10.1,9.2-17.6,18.5-22.4c1.4-0.7,2.3-1.4,1.9-3.2
		c-1.3-6.2-2.6-12.5-3.8-18.8c-0.3-1.9-0.8-2.1-2.3-0.8c-5.7,5.1-11.3,10.3-16.3,16.1c-6.8,7.8-12.5,16.4-15.2,26.5
		c-3.4,12.8-2.4,25,6,35.7c8.4,11,20.1,15.3,33.4,15.8c3.4,0.1,6.7-0.6,10.1-1.2c2-0.4,2.3-1.3,1.9-3.2c-1.1-4.8-2-9.7-2.9-14.6
		c-2.1-10.8-4.3-21.6-6.4-32.5c-0.5-2.8-0.8-2.9-3.4-1.7c-3.4,1.6-6.1,4-8.4,7c-7.5,9.6-5.8,21.7,4,28.1c0.6,0.3,1.4,0.8,2.1,1.2
		c1,0.6,1.5,1.8,1.2,2.9C152.6,204.4,152.1,205.9,150.5,205.4z M148,92c0.3,0.1,0.5,0.2,0.8,0.3c1.9-2,3.8-4.1,5.6-6.1
		c8.3-9.2,14.7-19.4,17-31.8c0.8-4.2,1.4-8.5-0.3-12.7c-2.1-5.2-6.7-6.8-11.5-4c-4.3,2.6-6.9,6.6-8.9,11.1c-4.2,9.8-6.1,20.1-5,30.8
		C146.2,83.8,146.7,87.9,148,92z M187.5,191.2c0-7.4-1.7-12.7-5-17.4c-4.4-6.2-10.4-9.6-17.9-10.3c-1.7-0.2-2.4,0.4-2,2.2
		c3.2,15.6,6.4,31.3,9.5,47c0.4,1.8,1,1.7,2.3,0.8C182.7,207.7,187.2,199.8,187.5,191.2z"/>
</g>
</svg>
