<?xml version="1.0" encoding="utf-8"?>
<!-- Generator: Adobe Illustrator 24.1.0, SVG Export Plug-In . SVG Version: 6.00 Build 0)  -->
<svg version="1.1" id="Layer_1" xmlns="http://www.w3.org/2000/svg" xmlns:xlink="http://www.w3.org/1999/xlink" x="0px" y="0px"
	 viewBox="0 0 300 300" style="enable-background:new 0 0 300 300;" xml:space="preserve">
<style type="text/css">
	.st0{fill:none;}
	.st1{fill-rule:evenodd;clip-rule:evenodd;}
</style>
<g>
	<g>
		<path class="st0" d="M149.9,261.3c-24.5,0-49,0-73.6,0c-1.2,0-1.4-0.2-1.4-1.4c0.1-49.1,0.1-98.1,0-147.1c0-1.2,0.2-1.5,1.5-1.5
			c49,0.1,98,0.1,147.1,0c1.2,0,1.4,0.2,1.4,1.5c-0.1,49.1-0.1,98,0,147.1c0,1.2-0.2,1.4-1.4,1.4C199,261.3,174.4,261.3,149.9,261.3
			z M146.2,144.8c-11.9,0.1-23,2-33.6,6.4c-8.4,3.5-16,8.2-21.8,15.4c-4.3,5.3-7.1,11.3-6.7,18.3c0.5,8.1,3.4,15.3,8.7,21.5
			c5.6,6.6,12.7,11.2,20.6,14.3c18,7,36.7,9.2,55.8,6.2c12.4-1.9,24-6.2,33.9-14.3c5.8-4.8,10.5-10.4,12-18c2-9.8-1-18.5-6.8-26.3
			c-5.6-7.6-13.3-12.4-21.9-16C173.4,146.9,159.7,145,146.2,144.8z"/>
		<path class="st1" d="M146.2,144.8c13.6,0.2,27.2,2.2,40.2,7.6c8.6,3.5,16.3,8.4,21.9,16c5.8,7.8,8.8,16.6,6.8,26.3
			c-1.6,7.6-6.2,13.2-12,18c-9.8,8.1-21.4,12.5-33.8,14.4c-19.1,2.9-37.8,0.8-55.8-6.2c-8-3.1-15-7.7-20.6-14.3
			c-5.3-6.2-8.2-13.4-8.7-21.5c-0.4-6.9,2.3-13,6.7-18.3c5.8-7.2,13.3-11.9,21.8-15.4C123.2,146.7,134.3,144.8,146.2,144.8z
			 M176.9,196.1c-1-8.5-3-18.1-7.6-27c-2.4-4.7-5.6-8.7-10.2-11.5c-10.4-6.3-25.1-5.2-32.3,6.9c-2.9,4.9-4.1,10.1-3.2,15.9
			c1.5,9,3.2,18,7.4,26.2c4.2,8,10.7,12.9,20.1,13.9C164.6,221.9,176.9,211.1,176.9,196.1z"/>
		<path class="st0" d="M176.9,196.1c-0.1,14.9-12.3,25.7-25.8,24.3c-9.3-0.9-15.8-5.9-20.1-13.9c-4.3-8.2-6-17.2-7.4-26.2
			c-0.9-5.7,0.2-11,3.2-15.9c7.2-12.1,21.8-13.2,32.3-6.9c4.6,2.8,7.8,6.8,10.2,11.4C173.9,178,175.9,187.6,176.9,196.1z"/>
	</g>
</g>
</svg>
