<?xml version="1.0" encoding="utf-8"?>
<!-- Generator: Adobe Illustrator 24.1.0, SVG Export Plug-In . SVG Version: 6.00 Build 0)  -->
<svg version="1.1" id="Layer_1" xmlns="http://www.w3.org/2000/svg" xmlns:xlink="http://www.w3.org/1999/xlink" x="0px" y="0px"
	 viewBox="0 0 300 300" style="enable-background:new 0 0 300 300;" xml:space="preserve">
<style type="text/css">
	.st0{fill:none;}
	.st1{fill-rule:evenodd;clip-rule:evenodd;}
</style>
<g>
	<g>
		<path class="st0" d="M150,299.9c-49,0-98.1,0-147.1,0.1c-2.4,0-2.9-0.5-2.9-2.9C0.1,199,0.1,101,0,2.9C0,0.5,0.5,0,2.9,0
			C101,0.1,199,0.1,297.1,0c2.4,0,2.9,0.5,2.9,2.9c-0.1,98.1-0.1,196.1,0,294.2c0,2.4-0.5,2.9-2.9,2.9
			C248.1,299.9,199,299.9,150,299.9z M142.5,66.9c-23.8,0.1-46,4-67.2,12.8c-16.8,7-32,16.5-43.6,30.8
			c-8.6,10.6-14.1,22.7-13.3,36.6c1,16.2,6.8,30.6,17.3,43c11.2,13.2,25.4,22.4,41.3,28.6c36,14,73.3,18.3,111.5,12.5
			c24.9-3.8,48-12.5,67.7-28.7c11.6-9.5,21-20.9,24-36c4-19.6-2-37-13.5-52.6c-11.2-15.2-26.7-24.9-43.9-32
			C196.9,71.2,169.6,67.4,142.5,66.9z"/>
		<path class="st1" d="M142.5,66.9c27.1,0.5,54.4,4.4,80.4,15.1c17.2,7.1,32.7,16.8,43.9,32c11.5,15.6,17.5,33.1,13.5,52.6
			c-3.1,15.1-12.4,26.4-24,36c-19.7,16.2-42.8,25-67.7,28.7c-38.2,5.8-75.5,1.5-111.5-12.5c-16-6.2-30.1-15.4-41.3-28.6
			c-10.6-12.4-16.4-26.9-17.3-43c-0.8-13.9,4.7-26,13.3-36.6c11.6-14.4,26.7-23.8,43.6-30.8C96.5,70.8,118.7,67,142.5,66.9z
			 M204,169.6c-2-17-6-36.2-15.2-54c-4.9-9.3-11.2-17.4-20.3-22.9c-20.8-12.6-50.2-10.5-64.6,13.8c-5.8,9.8-8.2,20.3-6.4,31.8
			c2.9,18,6.3,35.9,14.9,52.3c8.5,16.1,21.3,25.9,40.1,27.8C179.3,221.1,203.9,199.6,204,169.6z"/>
		<path class="st0" d="M204,169.6c-0.1,29.9-24.7,51.5-51.5,48.7c-18.7-1.9-31.5-11.7-40.1-27.8c-8.7-16.3-12-34.3-14.9-52.3
			c-1.9-11.4,0.5-22,6.4-31.8c14.4-24.2,43.7-26.3,64.6-13.8c9.1,5.5,15.5,13.6,20.3,22.9C198,133.4,202,152.6,204,169.6z"/>
	</g>
</g>
</svg>
