<?xml version="1.0" encoding="utf-8"?>
<!-- Generator: Adobe Illustrator 24.1.0, SVG Export Plug-In . SVG Version: 6.00 Build 0)  -->
<svg version="1.1" id="Layer_1" xmlns="http://www.w3.org/2000/svg" xmlns:xlink="http://www.w3.org/1999/xlink" x="0px" y="0px"
	 viewBox="0 0 300 300" style="enable-background:new 0 0 300 300;" xml:space="preserve">
<path d="M139.5,65.7c-0.5,0.1-0.9,0.5-0.9,1c-0.1,1.2,0.3,2.2,0.5,3.3c2.1,8.3,4.9,16.4,6.3,24.8c0.6,3.6-0.9,8.2-2.8,11.6
	c-4.3,7.9-9.2,15.6-14.3,23.1c-4,5.9-4.7,11.8-1,17.6l22.1,31.8c-4.5,0.6-8.3,1-12,1.5c-15.3,2.1-22.2,14.2-16.5,28.8
	c3.1,8.1,16.5,21.3,25.4,25.1c0.9,0.3,1.7-0.6,1.3-1.4c-0.8-1.5-1.4-2.8-2.3-4.1c-5.3-7.7-6.6-15.2-1-22.9c5.5-7.6,13.4-9.1,22-7.1
	c3,0.7,5.8,2.1,8.8,3c1.7,0.5,3.2,1.1,5.1,1c1.2-0.1,0.9-1.1,0-2c-10.8-12.3-20.5-25.5-25.6-41.2c-1.7-5.1,0.8-12,2.6-17.6
	c1.5-4.8,4.8-9,7.4-13.4c1.8-3.1,4-6,5.9-9.1c5.6-8.9,5.7-11.5-0.8-19.4L140.9,66c-0.3-0.3-0.6-0.4-1.1-0.3
	C139.8,65.6,139.6,65.7,139.5,65.7z"/>
</svg>
