<?xml version="1.0" encoding="utf-8"?>
<!-- Generator: Adobe Illustrator 24.1.0, SVG Export Plug-In . SVG Version: 6.00 Build 0)  -->
<svg version="1.1" id="Layer_1" xmlns="http://www.w3.org/2000/svg" xmlns:xlink="http://www.w3.org/1999/xlink" x="0px" y="0px"
	 viewBox="0 0 300 300" style="enable-background:new 0 0 300 300;" xml:space="preserve">
<style type="text/css">
	.st0{fill-rule:evenodd;clip-rule:evenodd;}
</style>
<path class="st0" d="M158.3,12.1c0,29.8,23.6,45,34.1,51.9c8.1,5.3,16,11.9,21.7,19.8c2.4,3.4,4.5,6.9,6.1,10.7
	c20.8,48.8-13.4,120.6-13.4,120.6s-1.9,5.1-4.1,1.6c-0.8-1.3-0.9-2.8-0.7-4.2c2.2-11,52.4-130.4-43.8-134.8v166.5
	c0,3.3-0.5,6.7-1.7,9.8c-5.3,14-19.9,34.1-53.1,34.1c-47.7,0-33.4-51.5,0.8-64.1c32-11.8,46.6,0,46.6,0V12.1H158.3z"/>
</svg>
