<?xml version="1.0" encoding="utf-8"?>
<!-- Generator: Adobe Illustrator 24.1.0, SVG Export Plug-In . SVG Version: 6.00 Build 0)  -->
<svg version="1.1" id="Layer_1" xmlns="http://www.w3.org/2000/svg" xmlns:xlink="http://www.w3.org/1999/xlink" x="0px" y="0px"
	 viewBox="0 0 300 300" style="enable-background:new 0 0 300 300;" xml:space="preserve">
<style type="text/css">
	.st0{fill-rule:evenodd;clip-rule:evenodd;}
</style>
<path class="st0" d="M186.1,83.5L186.1,83.5C186,84,180.1,108,165,108c-14,0-5-28-27.9-30.5c-18-0.3-27,10-27,23
	c0,12.8,18.3,19.1,70.9,7.5c1.5-0.3-0.3,6.1-2,16c-6,35-17.5,77.7-22.6,92.9c-1,3.1,0.8,5.6,4,5.6l0,0c3.2,0,6-2.4,6.4-5.6l23-131.7
	C190.2,83,187.5,81.8,186.1,83.5L186.1,83.5z"/>
</svg>
