<?xml version="1.0" encoding="utf-8"?>
<!-- Generator: Adobe Illustrator 24.1.0, SVG Export Plug-In . SVG Version: 6.00 Build 0)  -->
<svg version="1.1" id="Layer_1" xmlns="http://www.w3.org/2000/svg" xmlns:xlink="http://www.w3.org/1999/xlink" x="0px" y="0px"
	 viewBox="0 0 300 300" style="enable-background:new 0 0 300 300;" xml:space="preserve">
<style type="text/css">
	.st0{fill-rule:evenodd;clip-rule:evenodd;}
</style>
<path class="st0" d="M157.2,12.1c0,0,0,14.4,4.3,21.7s-2.8-0.1,39,41.6c36,42.8,22.6,74.1,22.6,74.1s-1.9,5.1-4.1,1.6
	c-0.8-1.3-0.9-2.8-0.7-4.2c2.2-11,3.2-46.2-61.1-83c0,32.9,19,44.2,25.7,50.3c6.7,6.1,37.5,32.8,43.9,61.4
	c5.5,24.8-7.2,51.8-10.7,58.6c-0.7,1.4-1.8,2.6-3.2,3.3c-1.4,0.8-2.9,0.8-2.5-2.5c0.8-6,7-20,8.3-33.5c1.3-13.4,3.1-34-21.1-52.8
	c-23.5-18.3-40.4-25.1-40.4-25.1V244c0,3.3-0.5,6.7-1.7,9.8c-5.3,14-19.9,34.1-53.1,34.1c-47.7,0-33.4-51.5,0.8-64.1
	c32-11.8,46.6,0,46.6,0l0-211.7H157.2z"/>
</svg>
