<?xml version="1.0" encoding="utf-8"?>
<!-- Generator: Adobe Illustrator 24.1.0, SVG Export Plug-In . SVG Version: 6.00 Build 0)  -->
<svg version="1.1" id="Layer_1" xmlns="http://www.w3.org/2000/svg" xmlns:xlink="http://www.w3.org/1999/xlink" x="0px" y="0px"
	 viewBox="0 0 300 300" style="enable-background:new 0 0 300 300;" xml:space="preserve">
<style type="text/css">
	.st0{fill-rule:evenodd;clip-rule:evenodd;}
</style>
<path class="st0" d="M191.6,68.3L191.6,68.3L191.6,68.3c-0.1,0.5-6,24.5-21.1,24.5c-14,0-5-28-27.9-30.5c-18-0.3-27,10-27,23
	c0,12.8,18.3,19.1,70.9,7.5l-5.7,26.3c-0.1,0.5-6.4,24.4-21.5,24.1c-14-0.2-4.5-28.1-27.4-31c-18-0.6-27.2,9.5-27.4,22.5
	c-0.2,12.8,18,19.4,70.8,8.7l-19.5,88.6c-1,3.1,0.8,5.6,4,5.6l0,0c3.2,0,6-2.4,6.4-5.6L195.4,70C196.2,66.5,192.3,65.9,191.6,68.3z"
	/>
</svg>
