<?xml version="1.0" encoding="utf-8"?>
<!-- Generator: Adobe Illustrator 24.1.0, SVG Export Plug-In . SVG Version: 6.00 Build 0)  -->
<svg version="1.1" id="Layer_1" xmlns="http://www.w3.org/2000/svg" xmlns:xlink="http://www.w3.org/1999/xlink" x="0px" y="0px"
	 viewBox="0 0 300 300" style="enable-background:new 0 0 300 300;" xml:space="preserve">
<path d="M135.5,203.5c-7.2-4.8-35.2-26.2-0.5-55.9c4.8-4.1,10.9-6.3,17.2-5.8c18.1,1.4,40.8,18.2,33,52c-11,31.8-38.8,29.4-55.3,25
	c-9.5-2.6-17.5-8.3-24.1-15.9c-14.9-17-28.7-43.6,6.4-88.1c41.7-52.8,41.4-45.3,47.7-62c0.5-1.3,0.9-2.7,1.2-4.1
	c3.6-17.7-12.7-22.3-21.3-3.1c-7.8,19.7-8.5,16,5.8,86.6c10.6,52.1,18.6,93.7,22,111.9c1.9,9.8-0.1,20-5.8,28.2
	c-6,8.5-15.6,14-32.7,7.5c-10.4-4-17-16-14.1-26.8c4-14.8,19.6-10,19.6-10s-2.2-0.8,0,0s10.2,5.8,9.1,17.1
	c-0.8,8.7-10.6,10.3-14.6,11.1c-0.6,0.1-0.8,0.8-0.4,1.2c3.2,4,20.1,10.5,30.1-4.9c3.8-5.9,5-13,3.7-19.9
	c-12.7-66-35.1-166.1-34.5-177.2c0.9-18.3,0,0,0,0s-3.8-33.5,10.5-49.4c14.3-16,21.9-12.1,26-0.2s14,32-1.6,60.5
	c-15.5,26.8-53.1,53.4-58.6,82.3s10.3,47,34.7,51.5c18.3,3.4,30.6-8,35.4-18.1c1.9-4,2.4-8.5,1.7-12.8c-1.5-8.7-3.7-19.1-18.7-23.5
	c-17.1-5-43.7,22.6-20,39.4c0.5,0.4,0.9,0.8,1.3,1.4l0,0c0.5,0.9,0.1,2.1-0.9,2.4l-0.1,0C136.9,204,136.1,203.9,135.5,203.5z"/>
</svg>
