<?xml version="1.0" encoding="utf-8"?>
<!-- Generator: Adobe Illustrator 24.1.0, SVG Export Plug-In . SVG Version: 6.00 Build 0)  -->
<svg version="1.1" id="Layer_1" xmlns="http://www.w3.org/2000/svg" xmlns:xlink="http://www.w3.org/1999/xlink" x="0px" y="0px"
	 viewBox="0 0 300 300" style="enable-background:new 0 0 300 300;" xml:space="preserve">
<g>
	<path d="M150,199.5c-47.1,0-85.5-22.2-85.5-49.5c0-27.3,38.4-49.5,85.5-49.5c47.1,0,85.5,22.2,85.5,49.5
		C235.5,177.3,197.1,199.5,150,199.5z"/>
	<path fill="white" d="M136.8,105.3c-3.8,0-7.2,0.9-10.3,2.6c-7,4-11,12.2-11.4,22.9c-0.3,10.6,3,22.6,9.4,33.7
		c10.1,17.5,26,29.2,39.7,29.2c0,0,0,0,0,0c3.8,0,7.2-0.9,10.3-2.6c7-4,11-12.2,11.4-22.9c0.3-10.6-3-22.6-9.4-33.7
		C166.4,117,150.4,105.3,136.8,105.3z"/>
</g>
</svg>
